<svg width="15" height="20" viewBox="0 0 15 20" fill="none" xmlns="http://www.w3.org/2000/svg">
<path d="M5.74963 9.23C6.02175 9.71222 6.35414 10.1497 6.74677 10.5425C7.13941 10.9353 7.57675 11.2678 8.0588 11.54L8.57195 10.8167C8.65748 10.6922 8.77216 10.6144 8.916 10.5833C9.05984 10.5522 9.19784 10.5717 9.33002 10.6417C10.1619 11.1006 11.0522 11.365 12.0007 11.435C12.1485 11.4506 12.2748 11.5128 12.3798 11.6217C12.4847 11.7306 12.5372 11.8628 12.5372 12.0183V14.62C12.5372 14.7678 12.4867 14.8981 12.3856 15.0108C12.2845 15.1236 12.1601 15.1878 12.0124 15.2033C11.7014 15.2344 11.3904 15.25 11.0794 15.25C9.85094 15.25 8.67692 15.0128 7.55732 14.5383C6.47659 14.0794 5.52027 13.4339 4.68834 12.6017C3.85642 11.7694 3.21109 10.8128 2.75237 9.73167C2.27809 8.61167 2.04095 7.43722 2.04095 6.20833C2.04095 5.89722 2.0565 5.58611 2.0876 5.275C2.10315 5.12722 2.1673 5.00278 2.28004 4.90167C2.39277 4.80056 2.523 4.75 2.67073 4.75H5.27147C5.42697 4.75 5.55914 4.8025 5.66799 4.9075C5.77684 5.0125 5.83904 5.13889 5.85459 5.28667C5.92457 6.23556 6.18892 7.12611 6.64764 7.95833C6.71762 8.09056 6.73705 8.22861 6.70595 8.3725C6.67485 8.51639 6.5971 8.63111 6.4727 8.71667L5.74963 9.23ZM4.28015 8.845L5.38809 8.05167C5.07709 7.375 4.86328 6.66333 4.74665 5.91667H3.2072V6.20833C3.2072 7.27389 3.41324 8.29667 3.82532 9.27667C4.22184 10.2178 4.78359 11.0519 5.51055 11.7792C6.23751 12.5064 7.07138 13.0683 8.01215 13.465C8.9918 13.8772 10.0142 14.0833 11.0794 14.0833H11.371V12.5433C10.6246 12.4267 9.91314 12.2128 9.23672 11.9017L8.44367 13.01C8.12489 12.8856 7.81389 12.7378 7.51067 12.5667L7.47568 12.555C6.9081 12.2283 6.39107 11.8317 5.92457 11.365C5.45807 10.8983 5.06154 10.3811 4.73499 9.81333L4.72333 9.77833C4.55228 9.475 4.40455 9.16389 4.28015 8.845Z" fill="#FB923C"/>
</svg>
