<svg width="15" height="20" viewBox="0 0 15 20" fill="none" xmlns="http://www.w3.org/2000/svg">
<g clip-path="url(#clip0_3425_740)">
<path d="M7.28901 4.45817C8.02763 4.45817 8.71572 4.64484 9.35327 5.01817C9.9675 5.37595 10.4534 5.86206 10.8111 6.4765C11.1843 7.11428 11.3709 7.80262 11.3709 8.5415V8.73984C11.8218 8.89539 12.2242 9.1365 12.578 9.46317C12.9317 9.78984 13.2077 10.1768 13.406 10.624C13.6043 11.0712 13.7034 11.5437 13.7034 12.0415C13.7034 12.6715 13.544 13.2587 13.2252 13.8032C12.9142 14.3321 12.4944 14.7521 11.9657 15.0632C11.4214 15.3821 10.8344 15.5415 10.2046 15.5415H4.37338C3.74361 15.5415 3.1566 15.3821 2.61235 15.0632C2.08365 14.7521 1.6638 14.3321 1.3528 13.8032C1.03402 13.2587 0.874634 12.6715 0.874634 12.0415C0.874634 11.5437 0.973765 11.0712 1.17203 10.624C1.37029 10.1768 1.6463 9.78984 2.00007 9.46317C2.35383 9.1365 2.75618 8.89539 3.20713 8.73984V8.5415C3.20713 7.80262 3.39373 7.11428 3.76693 6.4765C4.12458 5.86206 4.61052 5.37595 5.22475 5.01817C5.8623 4.64484 6.55038 4.45817 7.28901 4.45817ZM7.28901 5.62484C6.76031 5.62484 6.27243 5.75511 5.82537 6.01567C5.3783 6.27623 5.02454 6.63011 4.76408 7.07734C4.50362 7.52456 4.37338 8.01262 4.37338 8.5415L4.42003 9.5565L3.60366 9.8365C3.13716 9.99984 2.76007 10.2837 2.4724 10.6882C2.18472 11.0926 2.04088 11.5437 2.04088 12.0415C2.04088 12.4615 2.14585 12.8504 2.35577 13.2082C2.5657 13.5659 2.84948 13.8498 3.20713 14.0598C3.56478 14.2698 3.95353 14.3748 4.37338 14.3748H10.2046C10.6245 14.3748 11.0132 14.2698 11.3709 14.0598C11.7285 13.8498 12.0123 13.5659 12.2222 13.2082C12.4322 12.8504 12.5371 12.4615 12.5371 12.0415C12.5371 11.6215 12.4322 11.2326 12.2222 10.8748C12.0123 10.5171 11.7285 10.2332 11.3709 10.0232C11.0132 9.81317 10.6245 9.70817 10.2046 9.70817C9.69926 9.70817 9.24248 9.85595 8.83429 10.1515C8.4261 10.4471 8.14426 10.8321 7.98876 11.3065L6.88082 10.9332C7.03632 10.4743 7.27735 10.0621 7.6039 9.6965C7.93045 9.33095 8.3192 9.04706 8.77015 8.84484C9.2211 8.64261 9.69926 8.5415 10.2046 8.5415C10.2046 8.01262 10.0744 7.52456 9.81394 7.07734C9.55348 6.63011 9.19971 6.27623 8.75265 6.01567C8.30559 5.75511 7.81771 5.62484 7.28901 5.62484Z" fill="#60A5FA"/>
</g>
<defs>
<clipPath id="clip0_3425_740">
<rect width="14.5781" height="14" fill="white" transform="translate(0 3)"/>
</clipPath>
</defs>
</svg>
