<svg width="15" height="20" viewBox="0 0 15 20" fill="none" xmlns="http://www.w3.org/2000/svg">
<path d="M11.3709 8.8335H11.954C12.1173 8.8335 12.2553 8.88988 12.368 9.00266C12.4808 9.11544 12.5371 9.2535 12.5371 9.41683V15.2502C12.5371 15.4135 12.4808 15.5516 12.368 15.6643C12.2553 15.7771 12.1173 15.8335 11.954 15.8335H2.62402C2.46074 15.8335 2.32274 15.7771 2.21 15.6643C2.09726 15.5516 2.04089 15.4135 2.04089 15.2502V9.41683C2.04089 9.2535 2.09726 9.11544 2.21 9.00266C2.32274 8.88988 2.46074 8.8335 2.62402 8.8335H3.20714V8.25016C3.20714 7.51127 3.39374 6.82294 3.76694 6.18516C4.12459 5.57072 4.61053 5.08461 5.22476 4.72683C5.86231 4.3535 6.55039 4.16683 7.28902 4.16683C8.02764 4.16683 8.71573 4.3535 9.35328 4.72683C9.96751 5.08461 10.4534 5.57072 10.8111 6.18516C11.1843 6.82294 11.3709 7.51127 11.3709 8.25016V8.8335ZM3.20714 10.0002V14.6668H11.3709V10.0002H3.20714ZM6.70589 11.1668H7.87214V13.5002H6.70589V11.1668ZM10.2046 8.8335V8.25016C10.2046 7.72127 10.0744 7.23322 9.81395 6.786C9.55349 6.33877 9.19972 5.98489 8.75266 5.72433C8.3056 5.46377 7.81772 5.3335 7.28902 5.3335C6.76032 5.3335 6.27244 5.46377 5.82537 5.72433C5.37831 5.98489 5.02455 6.33877 4.76409 6.786C4.50362 7.23322 4.37339 7.72127 4.37339 8.25016V8.8335H10.2046Z" fill="#F87171"/>
</svg>
