<svg width="125" height="20" viewBox="0 0 125 20" fill="none" xmlns="http://www.w3.org/2000/svg">
<path d="M54.8322 17.5C54.5987 17.5 54.4014 17.4194 54.2402 17.2583C54.079 17.0972 53.9984 16.9 53.9984 16.6667V3.33333C53.9984 3.1 54.079 2.90278 54.2402 2.74167C54.4014 2.58055 54.5987 2.5 54.8322 2.5H69.8397C70.0731 2.5 70.2704 2.58055 70.4316 2.74167C70.5928 2.90278 70.6734 3.1 70.6734 3.33333V16.6667C70.6734 16.9 70.5928 17.0972 70.4316 17.2583C70.2704 17.4194 70.0731 17.5 69.8397 17.5H54.8322ZM69.0059 12.5V4.16667H55.6659V15.8333L64.0034 7.5L69.0059 12.5ZM69.0059 14.85L64.0034 9.85L58.0171 15.8333H69.0059V14.85ZM59.0009 9.16667C58.7008 9.16667 58.4228 9.09167 58.1672 8.94167C57.9115 8.79167 57.7086 8.58889 57.5585 8.33333C57.4085 8.07778 57.3334 7.8 57.3334 7.5C57.3334 7.2 57.4085 6.92222 57.5585 6.66667C57.7086 6.41111 57.9115 6.20833 58.1672 6.05833C58.4228 5.90833 58.7008 5.83333 59.0009 5.83333C59.3011 5.83333 59.579 5.90833 59.8347 6.05833C60.0903 6.20833 60.2932 6.41111 60.4433 6.66667C60.5934 6.92222 60.6684 7.2 60.6684 7.5C60.6684 7.8 60.5934 8.07778 60.4433 8.33333C60.2932 8.58889 60.0903 8.79167 59.8347 8.94167C59.579 9.09167 59.3011 9.16667 59.0009 9.16667Z" fill="#A855F7"/>
</svg>
