<svg width="125" height="20" viewBox="0 0 125 20" fill="none" xmlns="http://www.w3.org/2000/svg">
<path d="M65.6632 6.66671V13.3334H63.9957L62.3282 11.6667L60.6607 13.3334H58.9932V6.66671H60.6607V10.8334L62.3282 9.16671L63.9957 10.8334V6.66671H64.8294V3.33337H56.4919V16.6667H68.1644V6.66671H65.6632ZM54.8244 2.50004C54.8244 2.26671 54.905 2.06949 55.0662 1.90837C55.2274 1.74726 55.4247 1.66671 55.6582 1.66671H65.6632L69.8319 5.83337V17.5C69.8319 17.7223 69.7513 17.9167 69.5901 18.0834C69.4289 18.25 69.2316 18.3334 68.9982 18.3334H55.6582C55.4247 18.3334 55.2274 18.2528 55.0662 18.0917C54.905 17.9306 54.8244 17.7334 54.8244 17.5V2.50004Z" fill="#3B82F6"/>
</svg>
