<svg width="125" height="20" viewBox="0 0 125 20" fill="none" xmlns="http://www.w3.org/2000/svg">
<path d="M63.3364 10L65.6709 13.3334H63.6699L62.3359 11.4334L61.0019 13.3334H59.0009L61.3354 10L59.0009 6.66671H61.0019L62.3359 8.56671L63.6699 6.66671H64.8372V3.33337H56.4997V16.6667H68.1722V6.66671H65.6709L63.3364 10ZM54.8322 2.50004C54.8322 2.26671 54.9127 2.06949 55.0739 1.90837C55.2351 1.74726 55.4325 1.66671 55.6659 1.66671H65.6709L69.8397 5.83337V17.5C69.8397 17.7223 69.7591 17.9167 69.5979 18.0834C69.4367 18.25 69.2394 18.3334 69.0059 18.3334H55.6659C55.4325 18.3334 55.2351 18.2528 55.0739 18.0917C54.9127 17.9306 54.8322 17.7334 54.8322 17.5V2.50004Z" fill="#22C55E"/>
</svg>
