<svg width="17" height="16" viewBox="0 0 17 16" fill="none" xmlns="http://www.w3.org/2000/svg">
<path d="M1.84753 12.5C1.70753 12.5 1.5892 12.4517 1.49253 12.355C1.39587 12.2583 1.34753 12.14 1.34753 12V4C1.34753 3.86 1.39587 3.74167 1.49253 3.645C1.5892 3.54833 1.70753 3.5 1.84753 3.5H10.8475C10.9875 3.5 11.1059 3.54833 11.2025 3.645C11.2992 3.74167 11.3475 3.86 11.3475 4V12C11.3475 12.14 11.2992 12.2583 11.2025 12.355C11.1059 12.4517 10.9875 12.5 10.8475 12.5H1.84753ZM10.3475 9.5V4.5H2.34753V11.5L7.34753 6.5L10.3475 9.5ZM10.3475 10.91L7.34753 7.91L3.75753 11.5H10.3475V10.91ZM4.34753 7.5C4.16753 7.5 4.00087 7.455 3.84753 7.365C3.6942 7.275 3.57253 7.15333 3.48253 7C3.39253 6.84667 3.34753 6.68 3.34753 6.5C3.34753 6.32 3.39253 6.15333 3.48253 6C3.57253 5.84667 3.6942 5.725 3.84753 5.635C4.00087 5.545 4.16753 5.5 4.34753 5.5C4.52753 5.5 4.6942 5.545 4.84753 5.635C5.00087 5.725 5.12253 5.84667 5.21253 6C5.30253 6.15333 5.34753 6.32 5.34753 6.5C5.34753 6.68 5.30253 6.84667 5.21253 7C5.12253 7.15333 5.00087 7.275 4.84753 7.365C4.6942 7.455 4.52753 7.5 4.34753 7.5Z" fill="#9CA3AF"/>
</svg>
