<svg width="23" height="20" viewBox="0 0 23 20" fill="none" xmlns="http://www.w3.org/2000/svg">
<path d="M3.6037 5.07671C3.96912 4.94448 4.34427 4.92115 4.72913 5.00671C5.11399 5.09226 5.45026 5.27504 5.73794 5.55504C6.05671 5.88171 6.2472 6.26865 6.3094 6.71587C6.3716 7.16309 6.29774 7.58115 6.08781 7.97004L12.3272 14.2234L11.5109 15.04L5.25977 8.79837C4.87102 9.00837 4.45312 9.08226 4.00606 9.02004C3.55899 8.95782 3.17219 8.76726 2.84564 8.44837C2.56574 8.16059 2.38302 7.82421 2.2975 7.43921C2.21197 7.05421 2.2353 6.67893 2.36747 6.31337L3.67367 7.62004C3.84472 7.79115 4.05076 7.87671 4.29179 7.87671C4.53281 7.87671 4.73885 7.79115 4.9099 7.62004C5.08095 7.44893 5.16647 7.24282 5.16647 7.00171C5.16647 6.76059 5.08095 6.55448 4.9099 6.38337L3.6037 5.07671ZM9.64487 6.17337L11.5109 5.14671L12.3272 5.96337L11.3009 7.81837L10.263 8.02837L9.02676 9.26504L8.21039 8.44837L9.44661 7.20004L9.64487 6.17337ZM5.73794 10.9217L6.55431 11.7384L3.46375 14.8417C3.34712 14.9506 3.20912 15.005 3.04973 15.005C2.89034 15.005 2.75622 14.9506 2.64737 14.8417C2.53852 14.7328 2.48021 14.6045 2.47244 14.4567C2.46466 14.3089 2.50354 14.1767 2.58906 14.06L2.63571 14.0134L5.73794 10.9217Z" fill="#9CA3AF"/>
</svg>
