<svg width="64" height="88" viewBox="0 0 64 88" fill="none" xmlns="http://www.w3.org/2000/svg">
<path d="M0 32C0 14.3269 14.3269 0 32 0C49.6731 0 64 14.3269 64 32C64 49.6731 49.6731 64 32 64C14.3269 64 0 49.6731 0 32Z" fill="#22C55E" fill-opacity="0.2"/>
<path d="M32 0.5C49.397 0.5 63.5 14.603 63.5 32C63.5 49.397 49.397 63.5 32 63.5C14.603 63.5 0.5 49.397 0.5 32C0.5 14.603 14.603 0.5 32 0.5Z" stroke="#4ADE80" stroke-opacity="0.3"/>
<path d="M32 21L40.22 22.82C40.4467 22.8733 40.6333 22.9933 40.78 23.18C40.9267 23.3667 41 23.5733 41 23.8V33.78C41 34.7933 40.7633 35.74 40.29 36.62C39.8167 37.5 39.16 38.22 38.32 38.78L32 43L25.68 38.78C24.84 38.22 24.1833 37.5 23.71 36.62C23.2367 35.74 23 34.7933 23 33.78V23.8C23 23.5733 23.0733 23.3667 23.22 23.18C23.3667 22.9933 23.5533 22.8733 23.78 22.82L32 21ZM32 23.04L25 24.6V33.78C25 34.46 25.1567 35.0933 25.47 35.68C25.7833 36.2667 26.22 36.7467 26.78 37.12L32 40.6L37.22 37.12C37.78 36.7467 38.2167 36.2667 38.53 35.68C38.8433 35.0933 39 34.46 39 33.78V24.6L32 23.04ZM36.46 28.22L37.86 29.64L31.5 36L27.26 31.76L28.68 30.34L31.5 33.18L36.46 28.22Z" fill="#4ADE80"/>
</svg>
