<svg width="484" height="104" viewBox="0 0 484 104" fill="none" xmlns="http://www.w3.org/2000/svg">
<path d="M202 40C202 17.9086 219.909 0 242 0C264.091 0 282 17.9086 282 40C282 62.0914 264.091 80 242 80C219.909 80 202 62.0914 202 40Z" fill="url(#paint0_linear_3425_120)"/>
<path d="M242.536 40.725L247.836 46.025L246.061 47.8L243.786 45.525V52.5H241.286V45.525L239.011 47.8L237.236 46.025L242.536 40.725ZM242.536 27.5C244.003 27.5 245.386 27.85 246.686 28.55C247.919 29.2167 248.944 30.1417 249.761 31.325C250.578 32.5083 251.069 33.8167 251.236 35.25C252.203 35.5167 253.069 35.9708 253.836 36.6125C254.603 37.2542 255.203 38.0333 255.636 38.95C256.069 39.8667 256.286 40.8417 256.286 41.875C256.286 43.0583 256.011 44.15 255.461 45.15C254.911 46.15 254.157 46.9708 253.198 47.6125C252.24 48.2542 251.186 48.625 250.036 48.725V46.2C250.736 46.1 251.373 45.8458 251.948 45.4375C252.523 45.0292 252.973 44.5125 253.298 43.8875C253.623 43.2625 253.786 42.5917 253.786 41.875C253.786 41.075 253.59 40.3417 253.198 39.675C252.807 39.0083 252.278 38.4792 251.611 38.0875C250.944 37.6958 250.211 37.5 249.411 37.5C249.144 37.5 248.886 37.525 248.636 37.575C248.736 37.1417 248.786 36.7 248.786 36.25C248.786 35.1167 248.507 34.0708 247.948 33.1125C247.39 32.1542 246.632 31.3958 245.673 30.8375C244.715 30.2792 243.669 30 242.536 30C241.403 30 240.357 30.2792 239.398 30.8375C238.44 31.3958 237.682 32.1542 237.123 33.1125C236.565 34.0708 236.286 35.1167 236.286 36.25C236.286 36.7 236.336 37.1417 236.436 37.575C236.169 37.525 235.911 37.5 235.661 37.5C234.861 37.5 234.128 37.6958 233.461 38.0875C232.794 38.4792 232.265 39.0083 231.873 39.675C231.482 40.3417 231.286 41.075 231.286 41.875C231.286 42.575 231.44 43.2292 231.748 43.8375C232.057 44.4458 232.478 44.9542 233.011 45.3625C233.544 45.7708 234.144 46.0417 234.811 46.175L235.036 46.2V48.725C233.886 48.625 232.832 48.2542 231.873 47.6125C230.915 46.9708 230.161 46.15 229.611 45.15C229.061 44.15 228.786 43.0583 228.786 41.875C228.786 40.8417 229.003 39.8667 229.436 38.95C229.869 38.0333 230.469 37.2542 231.236 36.6125C232.003 35.9708 232.869 35.5167 233.836 35.25C234.003 33.8167 234.494 32.5083 235.311 31.325C236.128 30.1417 237.153 29.2167 238.386 28.55C239.686 27.85 241.069 27.5 242.536 27.5Z" fill="white"/>
<defs>
<linearGradient id="paint0_linear_3425_120" x1="202" y1="0" x2="282" y2="80" gradientUnits="userSpaceOnUse">
<stop stop-color="#F87171"/>
<stop offset="1" stop-color="#DC2626"/>
</linearGradient>
</defs>
</svg>
