<svg width="23" height="20" viewBox="0 0 23 20" fill="none" xmlns="http://www.w3.org/2000/svg">
<g clip-path="url(#clip0_3425_663)">
<path d="M7.28908 3.58317L12.0824 4.64484C12.2145 4.67595 12.3234 4.74595 12.4089 4.85484C12.4944 4.96373 12.5372 5.08428 12.5372 5.2165V11.0382C12.5372 11.6293 12.3992 12.1815 12.1232 12.6948C11.8472 13.2082 11.4643 13.6282 10.9744 13.9548L7.28908 16.4165L3.60373 13.9548C3.1139 13.6282 2.73099 13.2082 2.45497 12.6948C2.17896 12.1815 2.04095 11.6293 2.04095 11.0382V5.2165C2.04095 5.08428 2.08372 4.96373 2.16924 4.85484C2.25477 4.74595 2.36362 4.67595 2.49579 4.64484L7.28908 3.58317ZM7.28908 4.77317L3.2072 5.68317V11.0382C3.2072 11.4348 3.29856 11.8043 3.48127 12.1465C3.66399 12.4887 3.91862 12.7687 4.24517 12.9865L7.28908 15.0165L10.333 12.9865C10.6595 12.7687 10.9142 12.4887 11.0969 12.1465C11.2796 11.8043 11.371 11.4348 11.371 11.0382V5.68317L7.28908 4.77317ZM9.88982 7.79484L10.7062 8.62317L6.99752 12.3332L4.52507 9.85984L5.3531 9.0315L6.99752 10.6882L9.88982 7.79484Z" fill="#9CA3AF"/>
</g>
<defs>
<clipPath id="clip0_3425_663">
<rect width="14.5781" height="14" fill="white" transform="translate(0 3)"/>
</clipPath>
</defs>
</svg>
