<svg width="23" height="20" viewBox="0 0 23 20" fill="none" xmlns="http://www.w3.org/2000/svg">
<path d="M7.28906 3.58335L12.0824 4.64502C12.2145 4.67613 12.3234 4.74613 12.4089 4.85502C12.4944 4.96391 12.5372 5.08447 12.5372 5.21669V11.0384C12.5372 11.6295 12.3992 12.1817 12.1232 12.695C11.8472 13.2084 11.4642 13.6284 10.9744 13.955L7.28906 16.4167L3.60371 13.955C3.11389 13.6284 2.73097 13.2084 2.45496 12.695C2.17895 12.1817 2.04094 11.6295 2.04094 11.0384V5.21669C2.04094 5.08447 2.0837 4.96391 2.16923 4.85502C2.25475 4.74613 2.3636 4.67613 2.49578 4.64502L7.28906 3.58335ZM7.28906 4.77335L3.20719 5.68335V11.0384C3.20719 11.435 3.29855 11.8045 3.48126 12.1467C3.66397 12.4889 3.9186 12.7689 4.24515 12.9867L7.28906 15.0167L10.333 12.9867C10.6595 12.7689 10.9142 12.4889 11.0969 12.1467C11.2796 11.8045 11.3709 11.435 11.3709 11.0384V5.68335L7.28906 4.77335ZM9.8898 7.79502L10.7062 8.62335L6.9975 12.3334L4.52505 9.86002L5.35309 9.03169L6.9975 10.6884L9.8898 7.79502Z" fill="#4ADE80"/>
</svg>
