<svg width="23" height="20" viewBox="0 0 23 20" fill="none" xmlns="http://www.w3.org/2000/svg">
<path d="M6.75257 3.93356L12.5255 4.76189L13.3535 10.5369L7.9888 15.8919C7.87995 16.0086 7.74389 16.0669 7.58061 16.0669C7.41734 16.0669 7.28127 16.0086 7.17242 15.8919L1.39949 10.1169C1.28286 10.008 1.22455 9.87189 1.22455 9.70856C1.22455 9.54523 1.28286 9.40912 1.39949 9.30023L6.75257 3.93356ZM7.17242 5.17023L2.63571 9.70856L7.58061 14.6552L12.1173 10.1169L11.4992 5.78856L7.17242 5.17023ZM8.40865 8.88023C8.26092 8.73245 8.15985 8.55939 8.10542 8.36106C8.051 8.16273 8.051 7.96245 8.10542 7.76023C8.15985 7.55801 8.26092 7.38301 8.40865 7.23523C8.55637 7.08745 8.72937 6.98634 8.92763 6.93189C9.12589 6.87745 9.3261 6.87745 9.52825 6.93189C9.7304 6.98634 9.90534 7.08745 10.0531 7.23523C10.2008 7.38301 10.3019 7.55801 10.3563 7.76023C10.4107 7.96245 10.4107 8.16273 10.3563 8.36106C10.3019 8.55939 10.2008 8.73245 10.0531 8.88023C9.90534 9.02801 9.7304 9.12912 9.52825 9.18356C9.3261 9.23801 9.12589 9.23801 8.92763 9.18356C8.72937 9.12912 8.55637 9.02801 8.40865 8.88023Z" fill="#9CA3AF"/>
</svg>
