<svg width="17" height="16" viewBox="0 0 17 16" fill="none" xmlns="http://www.w3.org/2000/svg">
<path d="M8.35022 6V10H7.35022L6.35022 9L5.35022 10H4.35022V6H5.35022V8.5L6.35022 7.5L7.35022 8.5V6H7.85022V4H2.85022V12H9.85022V6H8.35022ZM1.85022 3.5C1.85022 3.36 1.89855 3.24167 1.99522 3.145C2.09189 3.04833 2.21022 3 2.35022 3H8.35022L10.8502 5.5V12.5C10.8502 12.6333 10.8019 12.75 10.7052 12.85C10.6086 12.95 10.4902 13 10.3502 13H2.35022C2.21022 13 2.09189 12.9517 1.99522 12.855C1.89855 12.7583 1.85022 12.64 1.85022 12.5V3.5Z" fill="#9CA3AF"/>
</svg>
