<svg width="23" height="20" viewBox="0 0 23 20" fill="none" xmlns="http://www.w3.org/2000/svg">
<path d="M13.1203 12.6715C13.1203 13.216 12.9998 13.7332 12.7588 14.2232C12.5255 14.6898 12.199 15.0885 11.7791 15.419C11.3593 15.7496 10.8889 15.9732 10.368 16.0898L9.99477 14.9698C10.3446 14.9154 10.6634 14.7871 10.9511 14.5848C11.2388 14.3826 11.4681 14.1298 11.6392 13.8265H10.2047C9.99477 13.8265 9.8004 13.776 9.62157 13.6748C9.44275 13.5737 9.30086 13.4337 9.19589 13.2548C9.09093 13.076 9.03845 12.8776 9.03845 12.6598V10.3265C9.03845 10.1165 9.09093 9.92207 9.19589 9.74318C9.30086 9.56429 9.44275 9.42234 9.62157 9.31734C9.8004 9.21234 9.99477 9.15984 10.2047 9.15984H11.9191C11.8258 8.4054 11.5614 7.71707 11.126 7.09484C10.6906 6.47262 10.1425 5.98262 9.48162 5.62484C8.79742 5.25929 8.06657 5.07651 7.28907 5.07651C6.51157 5.07651 5.78072 5.25929 5.09652 5.62484C4.43565 5.98262 3.88751 6.47262 3.45211 7.09484C3.01671 7.71707 2.75236 8.4054 2.65906 9.15984H4.37345C4.58337 9.15984 4.77775 9.21234 4.95657 9.31734C5.1354 9.42234 5.27729 9.56429 5.38226 9.74318C5.48722 9.92207 5.5397 10.1165 5.5397 10.3265V12.6598C5.5397 12.8776 5.48722 13.076 5.38226 13.2548C5.27729 13.4337 5.1354 13.5737 4.95657 13.6748C4.77775 13.776 4.58337 13.8265 4.37345 13.8265H2.62407C2.41415 13.8265 2.21977 13.776 2.04095 13.6748C1.86212 13.5737 1.72023 13.4337 1.61527 13.2548C1.51031 13.076 1.45782 12.8776 1.45782 12.6598V9.74318C1.45782 8.95762 1.60944 8.20318 1.91266 7.47984C2.20811 6.77984 2.62602 6.16151 3.16638 5.62484C3.70674 5.08818 4.32291 4.67207 5.01489 4.37651C5.73796 4.0654 6.49602 3.90984 7.28907 3.90984C8.08212 3.90984 8.84019 4.0654 9.56326 4.37651C10.2552 4.67207 10.8714 5.08818 11.4118 5.62484C11.9521 6.16151 12.37 6.77984 12.6655 7.47984C12.9687 8.20318 13.1203 8.95762 13.1203 9.74318V12.6715ZM11.9541 12.6598V10.3265H10.2047V12.6598H11.9541ZM2.62407 10.3265V12.6598H4.37345V10.3265H2.62407Z" fill="#9CA3AF"/>
</svg>
