<svg width="17" height="16" viewBox="0 0 17 16" fill="none" xmlns="http://www.w3.org/2000/svg">
<path d="M6.94741 8L8.34741 10H7.14741L6.34741 8.86L5.54741 10H4.34741L5.74741 8L4.34741 6H5.54741L6.34741 7.14L7.14741 6H7.84741V4H2.84741V12H9.84741V6H8.34741L6.94741 8ZM1.84741 3.5C1.84741 3.36 1.89575 3.24167 1.99241 3.145C2.08908 3.04833 2.20741 3 2.34741 3H8.34741L10.8474 5.5V12.5C10.8474 12.6333 10.7991 12.75 10.7024 12.85C10.6057 12.95 10.4874 13 10.3474 13H2.34741C2.20741 13 2.08908 12.9517 1.99241 12.855C1.89575 12.7583 1.84741 12.64 1.84741 12.5V3.5Z" fill="#9CA3AF"/>
</svg>
