<svg width="25" height="22" viewBox="0 0 25 22" fill="none" xmlns="http://www.w3.org/2000/svg">
<path d="M3.66781 14.5067C3.66781 13.3956 3.86787 12.3334 4.268 11.32C4.65923 10.3423 5.20829 9.48225 5.91518 8.74003C6.62207 7.99781 7.42899 7.43559 8.33594 7.05336C9.24289 7.43559 10.0498 7.99781 10.7567 8.74003C11.4636 9.48225 12.0126 10.3423 12.4039 11.32C12.804 12.3334 13.0041 13.3956 13.0041 14.5067C13.0041 15.0489 12.9552 15.5823 12.8573 16.1067L14.1511 17.32C14.2044 17.3734 14.2378 17.4378 14.2511 17.5134C14.2645 17.5889 14.2533 17.6623 14.2178 17.7334L12.5506 20.7734C12.5061 20.8534 12.4394 20.9067 12.3505 20.9334C12.2616 20.96 12.1771 20.9511 12.0971 20.9067C12.0704 20.8978 12.0438 20.88 12.0171 20.8534L10.5366 19.36C10.4032 19.2356 10.2432 19.1734 10.0565 19.1734H6.6154C6.42867 19.1734 6.26862 19.2356 6.13525 19.36L4.65479 20.8534C4.58365 20.9156 4.50363 20.9467 4.41471 20.9467C4.32579 20.9467 4.24577 20.9156 4.17464 20.8534C4.15685 20.8356 4.13907 20.8089 4.12129 20.7734L2.4541 17.7334C2.41853 17.6623 2.40742 17.5889 2.42075 17.5134C2.43409 17.4378 2.46744 17.3734 2.52079 17.32L3.81452 16.1067C3.71672 15.5823 3.66781 15.0489 3.66781 14.5067ZM4.65479 18.96L5.20162 18.4267C5.38835 18.24 5.60397 18.0956 5.84849 17.9934C6.09301 17.8911 6.34865 17.84 6.6154 17.84H10.0565C10.3232 17.84 10.5789 17.8911 10.8234 17.9934C11.0679 18.0956 11.2835 18.24 11.4702 18.4267L12.0171 18.96L12.6706 17.76L11.9371 17.08C11.777 16.92 11.6614 16.7334 11.5903 16.52C11.5192 16.3067 11.5058 16.0889 11.5503 15.8667C11.6303 15.4134 11.6703 14.96 11.6703 14.5067C11.6703 13.6534 11.5325 12.8356 11.2568 12.0534C10.9812 11.2889 10.5922 10.6023 10.0898 9.99336C9.58744 9.38447 9.00281 8.89781 8.33594 8.53336C7.66906 8.89781 7.08443 9.38447 6.58205 9.99336C6.07968 10.6023 5.69067 11.2889 5.41502 12.0534C5.13938 12.8356 5.00156 13.6534 5.00156 14.5067C5.00156 14.96 5.04157 15.4134 5.1216 15.8667C5.16606 16.0889 5.15272 16.3067 5.08159 16.52C5.01045 16.7334 4.89486 16.92 4.73481 17.08L4.00125 17.76L4.65479 18.96ZM8.33594 14.5067C8.09586 14.5067 7.87357 14.4467 7.66906 14.3267C7.46455 14.2067 7.30228 14.0445 7.18224 13.84C7.0622 13.6356 7.00219 13.4134 7.00219 13.1734C7.00219 12.9334 7.0622 12.7111 7.18224 12.5067C7.30228 12.3023 7.46455 12.14 7.66906 12.02C7.87357 11.9 8.09586 11.84 8.33594 11.84C8.57601 11.84 8.7983 11.9 9.00281 12.02C9.20732 12.14 9.36959 12.3023 9.48963 12.5067C9.60967 12.7111 9.66969 12.9334 9.66969 13.1734C9.66969 13.4134 9.60967 13.6356 9.48963 13.84C9.36959 14.0445 9.20732 14.2067 9.00281 14.3267C8.7983 14.4467 8.57601 14.5067 8.33594 14.5067Z" fill="white"/>
</svg>
