<svg width="280" height="44" viewBox="0 0 280 44" fill="none" xmlns="http://www.w3.org/2000/svg">
<path d="M11.8893 31.2502H13.9736L14.8074 27.9168H11.8893V26.2502C11.8893 25.8724 11.9059 25.6002 11.9393 25.4335C12.006 25.1668 12.1505 24.9613 12.3728 24.8168C12.6396 24.6613 13.0343 24.5835 13.5568 24.5835H14.8074V21.7835C14.6184 21.7613 14.3183 21.7391 13.9069 21.7168C13.3956 21.6835 12.9009 21.6668 12.4229 21.6668C11.6558 21.6668 10.9805 21.8196 10.3969 22.1252C9.81324 22.4307 9.36579 22.8668 9.05452 23.4335C8.72102 24.0446 8.55427 24.7613 8.55427 25.5835V27.9168H6.05302V31.2502H8.55427V38.3335H11.8893V31.2502Z" fill="#6B7280"/>
<path d="M55.7699 24.7332C55.1251 25.011 54.4581 25.1943 53.7689 25.2832C54.1246 25.061 54.4359 24.7832 54.7027 24.4499C54.9695 24.1166 55.164 23.7499 55.2863 23.3499C54.5971 23.761 53.8634 24.0443 53.0852 24.1999C52.7517 23.8443 52.3626 23.5721 51.9179 23.3832C51.4733 23.1943 51.0119 23.0999 50.5339 23.0999C49.9003 23.0999 49.3166 23.2555 48.783 23.5666C48.2494 23.8777 47.827 24.2999 47.5157 24.8332C47.2045 25.3666 47.0488 25.9499 47.0488 26.5832C47.0488 26.8499 47.0766 27.1166 47.1322 27.3832C45.7093 27.3055 44.3642 26.9443 43.0969 26.2999C41.874 25.6666 40.8235 24.811 39.9453 23.7332C39.634 24.2777 39.4784 24.861 39.4784 25.4832C39.4784 26.0832 39.6174 26.6388 39.8953 27.1499C40.1732 27.661 40.5512 28.0721 41.0292 28.3832C40.4733 28.3721 39.9453 28.2277 39.445 27.9499V27.9999C39.445 28.5555 39.5673 29.0721 39.8119 29.5499C40.0565 30.0277 40.3927 30.4305 40.8207 30.7582C41.2487 31.086 41.724 31.3055 42.2464 31.4166C41.9463 31.4943 41.6406 31.5332 41.3293 31.5332C41.107 31.5332 40.8902 31.511 40.679 31.4666C40.9013 32.1666 41.3099 32.7416 41.9046 33.1916C42.4993 33.6416 43.1747 33.8777 43.9306 33.8999C43.3081 34.3777 42.6272 34.7443 41.8879 34.9999C41.1487 35.2555 40.3844 35.3832 39.5951 35.3832C39.3172 35.3832 39.0393 35.3666 38.7614 35.3332C39.5618 35.8443 40.4178 36.2332 41.3293 36.4999C42.2409 36.7666 43.1691 36.8999 44.114 36.8999C45.6481 36.8999 47.0655 36.5999 48.3662 35.9999C49.5557 35.4443 50.5951 34.6666 51.4844 33.6666C52.307 32.7332 52.9407 31.6721 53.3853 30.4832C53.8189 29.3277 54.0357 28.161 54.0357 26.9832C54.0357 26.8388 54.0301 26.6888 54.019 26.5332C54.7082 26.0332 55.2919 25.4332 55.7699 24.7332Z" fill="#6B7280"/>
<path d="M79.5071 24.1667C79.496 24.5111 79.3959 24.8222 79.2069 25.1C79.0179 25.3778 78.7678 25.5806 78.4566 25.7083C78.1453 25.8361 77.8229 25.8667 77.4894 25.8C77.1559 25.7333 76.8696 25.5778 76.6306 25.3333C76.3916 25.0889 76.2443 24.8 76.1888 24.4667C76.1332 24.1333 76.1721 23.8111 76.3055 23.5C76.4389 23.1889 76.6501 22.9417 76.9391 22.7583C77.2282 22.575 77.545 22.4889 77.8896 22.5C78.3343 22.5111 78.715 22.6778 79.0318 23C79.3487 23.3222 79.5071 23.7111 79.5071 24.1667ZM79.5571 27.0667H76.2221V37.5H79.5571V27.0667ZM84.8264 27.0667H81.5081V37.5H84.7931V32.0333C84.7931 31.4444 84.9265 30.9444 85.1933 30.5333C85.4489 30.1556 85.7769 29.8944 86.1771 29.75C86.5773 29.6056 86.9775 29.5944 87.3777 29.7167C87.7779 29.8389 88.1003 30.0833 88.3448 30.45C88.6227 30.8722 88.7617 31.4 88.7617 32.0333V37.5H92.0634V30.9C92.0634 29.9222 91.8521 29.0944 91.4297 28.4167C91.0629 27.8278 90.5515 27.3833 89.8956 27.0833C89.2953 26.8278 88.645 26.7167 87.9446 26.75C87.2665 26.7833 86.6384 26.9528 86.0604 27.2583C85.4823 27.5639 85.0599 27.9667 84.7931 28.4667L84.8264 27.0667Z" fill="#6B7280"/>
<path d="M121.804 21.6668C122.648 21.6668 123.26 21.6724 123.638 21.6835L124.388 21.7168C125.166 21.7502 125.839 21.8779 126.406 22.1002C126.973 22.3224 127.467 22.6446 127.89 23.0668C128.312 23.4891 128.635 23.9835 128.857 24.5502C129.079 25.1168 129.207 25.7891 129.241 26.5668L129.274 27.3168C129.285 27.7057 129.291 28.3168 129.291 29.1502V30.8502C129.291 31.6946 129.285 32.3057 129.274 32.6835L129.241 33.4335C129.207 34.2113 129.079 34.8835 128.857 35.4502C128.635 36.0168 128.312 36.5113 127.89 36.9335C127.467 37.3557 126.973 37.6779 126.406 37.9002C125.839 38.1224 125.166 38.2502 124.388 38.2835L123.638 38.3168C123.249 38.3279 122.637 38.3335 121.804 38.3335H120.103C119.258 38.3335 118.646 38.3279 118.268 38.3168L117.518 38.2835C116.74 38.2502 116.067 38.1224 115.5 37.9002C114.933 37.6779 114.439 37.3557 114.016 36.9335C113.594 36.5113 113.272 36.0168 113.049 35.4502C112.827 34.8835 112.699 34.2113 112.666 33.4335L112.632 32.6835C112.621 32.2946 112.616 31.6835 112.616 30.8502V29.1502C112.616 28.3057 112.621 27.6946 112.632 27.3168L112.666 26.5668C112.699 25.7891 112.827 25.1168 113.049 24.5502C113.272 23.9835 113.594 23.4891 114.016 23.0668C114.439 22.6446 114.933 22.3224 115.5 22.1002C116.067 21.8779 116.74 21.7502 117.518 21.7168L118.268 21.6835C118.658 21.6724 119.269 21.6668 120.103 21.6668H121.804ZM120.953 25.8335C120.197 25.8335 119.5 26.0196 118.86 26.3918C118.221 26.7641 117.715 27.2696 117.343 27.9085C116.971 28.5474 116.784 29.2446 116.784 30.0002C116.784 30.7557 116.971 31.4529 117.343 32.0918C117.715 32.7307 118.221 33.2363 118.86 33.6085C119.5 33.9807 120.197 34.1668 120.953 34.1668C121.709 34.1668 122.407 33.9807 123.046 33.6085C123.685 33.2363 124.191 32.7307 124.563 32.0918C124.936 31.4529 125.122 30.7557 125.122 30.0002C125.122 29.2446 124.936 28.5474 124.563 27.9085C124.191 27.2696 123.685 26.7641 123.046 26.3918C122.407 26.0196 121.709 25.8335 120.953 25.8335ZM120.953 27.5002C121.409 27.5002 121.829 27.6113 122.212 27.8335C122.596 28.0557 122.899 28.3585 123.121 28.7418C123.343 29.1252 123.454 29.5446 123.454 30.0002C123.454 30.4557 123.343 30.8752 123.121 31.2585C122.899 31.6418 122.596 31.9446 122.212 32.1668C121.829 32.3891 121.409 32.5002 120.953 32.5002C120.497 32.5002 120.078 32.3891 119.694 32.1668C119.311 31.9446 119.008 31.6418 118.785 31.2585C118.563 30.8752 118.452 30.4557 118.452 30.0002C118.452 29.5446 118.563 29.1252 118.785 28.7418C119.008 28.3585 119.311 28.0557 119.694 27.8335C120.078 27.6113 120.497 27.5002 120.953 27.5002ZM125.322 24.5835C125.044 24.5835 124.802 24.6863 124.597 24.8918C124.391 25.0974 124.288 25.3418 124.288 25.6252C124.288 25.9085 124.391 26.1529 124.597 26.3585C124.802 26.5641 125.047 26.6668 125.33 26.6668C125.614 26.6668 125.858 26.5641 126.064 26.3585C126.27 26.1529 126.373 25.9085 126.373 25.6252C126.373 25.3418 126.27 25.0974 126.064 24.8918C125.858 24.6863 125.611 24.5835 125.322 24.5835Z" fill="#6B7280"/>
</svg>
