<svg width="64" height="88" viewBox="0 0 64 88" fill="none" xmlns="http://www.w3.org/2000/svg">
<path d="M0 32C0 14.3269 14.3269 0 32 0C49.6731 0 64 14.3269 64 32C64 49.6731 49.6731 64 32 64C14.3269 64 0 49.6731 0 32Z" fill="#EF4444" fill-opacity="0.2"/>
<path d="M32 0.5C49.397 0.5 63.5 14.603 63.5 32C63.5 49.397 49.397 63.5 32 63.5C14.603 63.5 0.5 49.397 0.5 32C0.5 14.603 14.603 0.5 32 0.5Z" stroke="#F87171" stroke-opacity="0.3"/>
<path d="M32 42C30.64 42 29.34 41.74 28.1 41.22C26.9133 40.7133 25.8567 39.9967 24.93 39.07C24.0033 38.1433 23.2867 37.0867 22.78 35.9C22.26 34.66 22 33.36 22 32C22 30.64 22.26 29.34 22.78 28.1C23.2867 26.9133 24.0033 25.8567 24.93 24.93C25.8567 24.0033 26.9133 23.2867 28.1 22.78C29.34 22.26 30.64 22 32 22C33.36 22 34.66 22.26 35.9 22.78C37.0867 23.2867 38.1433 24.0033 39.07 24.93C39.9967 25.8567 40.7133 26.9133 41.22 28.1C41.74 29.34 42 30.64 42 32C42 33.36 41.74 34.66 41.22 35.9C40.7133 37.0867 39.9967 38.1433 39.07 39.07C38.1433 39.9967 37.0867 40.7133 35.9 41.22C34.66 41.74 33.36 42 32 42ZM32 40C33.4533 40 34.8 39.6333 36.04 38.9C37.24 38.1933 38.1933 37.24 38.9 36.04C39.6333 34.8 40 33.4533 40 32C40 30.5467 39.6333 29.2 38.9 27.96C38.1933 26.76 37.24 25.8067 36.04 25.1C34.8 24.3667 33.4533 24 32 24C30.5467 24 29.2 24.3667 27.96 25.1C26.76 25.8067 25.8067 26.76 25.1 27.96C24.3667 29.2 24 30.5467 24 32C24 33.4533 24.3667 34.8 25.1 36.04C25.8067 37.24 26.76 38.1933 27.96 38.9C29.2 39.6333 30.5467 40 32 40ZM27 33H36V35H32V38L27 33ZM32 29V26L37 31H28V29H32Z" fill="#F87171"/>
</svg>
