<svg width="25" height="20" viewBox="0 0 25 20" fill="none" xmlns="http://www.w3.org/2000/svg">
<path d="M9.04285 9.41322L9.98981 10.3466C10.5856 10.9421 10.9901 11.6488 11.2035 12.4666C11.408 13.2577 11.408 14.0488 11.2035 14.8399C10.9901 15.6488 10.5856 16.351 9.98981 16.9466L9.74973 17.1866C9.15399 17.7821 8.44711 18.1866 7.62907 18.3999C6.84661 18.6043 6.05969 18.6043 5.26833 18.3999C4.4503 18.1866 3.74341 17.7821 3.14767 17.1866C2.55193 16.591 2.14736 15.8843 1.93396 15.0666C1.72945 14.2754 1.72945 13.4888 1.93396 12.7066C2.14736 11.8888 2.55193 11.1821 3.14767 10.5866L4.09464 11.5332C3.66783 11.9599 3.37886 12.4577 3.2277 13.0266C3.07654 13.5954 3.07654 14.1666 3.2277 14.7399C3.37886 15.3132 3.66783 15.8132 4.09464 16.2399C4.52144 16.6666 5.02159 16.9554 5.5951 17.1066C6.16862 17.2577 6.73991 17.2577 7.30897 17.1066C7.87804 16.9554 8.37597 16.6666 8.80277 16.2399L9.04285 16.0132C9.46965 15.5777 9.75863 15.0754 9.90979 14.5066C10.0609 13.9377 10.0609 13.3666 9.90979 12.7932C9.75863 12.2199 9.46965 11.7199 9.04285 11.2932L8.09589 10.3466L9.04285 9.41322ZM13.5242 13.4132L12.5773 12.4666C13.0041 12.0399 13.2931 11.5421 13.4442 10.9732C13.5954 10.4043 13.5954 9.83322 13.4442 9.25989C13.2931 8.68656 13.0041 8.18656 12.5773 7.75989C12.1505 7.33322 11.6503 7.04433 11.0768 6.89322C10.5033 6.74211 9.93201 6.74211 9.36295 6.89322C8.79388 7.04433 8.29595 7.33322 7.86915 7.75989L7.62907 7.98656C7.20227 8.42211 6.91329 8.92433 6.76214 9.49322C6.61098 10.0621 6.61098 10.6332 6.76214 11.2066C6.91329 11.7799 7.20227 12.2799 7.62907 12.7066L8.57604 13.6532L7.62907 14.5866L6.68211 13.6532C6.08637 13.0577 5.6818 12.351 5.4684 11.5332C5.26389 10.7421 5.26389 9.951 5.4684 9.15989C5.6818 8.351 6.08637 7.64878 6.68211 7.05322L6.92218 6.81322C7.51793 6.21767 8.22481 5.81322 9.04285 5.59989C9.82531 5.39544 10.6122 5.39544 11.4036 5.59989C12.2216 5.81322 12.9285 6.21767 13.5242 6.81322C14.12 7.40878 14.5246 8.11544 14.738 8.93322C14.9425 9.72433 14.9425 10.511 14.738 11.2932C14.5246 12.111 14.12 12.8177 13.5242 13.4132Z" fill="#D1D5DB"/>
</svg>
