<svg width="25" height="20" viewBox="0 0 25 20" fill="none" xmlns="http://www.w3.org/2000/svg">
<g clip-path="url(#clip0_3425_483)">
<path d="M8.33592 4.66658L13.8176 5.87992C13.9688 5.91547 14.0933 5.99547 14.1911 6.11992C14.2889 6.24436 14.3378 6.38214 14.3378 6.53325V13.1866C14.3378 13.8621 14.18 14.4933 13.8643 15.0799C13.5487 15.6666 13.1107 16.1466 12.5506 16.5199L8.33592 19.3333L4.12127 16.5199C3.5611 16.1466 3.12318 15.6666 2.80753 15.0799C2.49187 14.4933 2.33405 13.8621 2.33405 13.1866V6.53325C2.33405 6.38214 2.38295 6.24436 2.48076 6.11992C2.57857 5.99547 2.70305 5.91547 2.85421 5.87992L8.33592 4.66658ZM8.33592 6.02658L3.6678 7.06658V13.1866C3.6678 13.6399 3.77227 14.0621 3.98123 14.4533C4.19018 14.8444 4.48138 15.1644 4.85483 15.4133L8.33592 17.7333L11.817 15.4133C12.1905 15.1644 12.4817 14.8444 12.6906 14.4533C12.8996 14.0621 13.004 13.6399 13.004 13.1866V7.06658L8.33592 6.02658ZM11.3102 9.47992L12.2438 10.4266L8.00248 14.6666L5.17493 11.8399L6.1219 10.8933L8.00248 12.7866L11.3102 9.47992Z" fill="#D1D5DB"/>
</g>
<defs>
<clipPath id="clip0_3425_483">
<rect width="16.6719" height="16" fill="white" transform="translate(0 4)"/>
</clipPath>
</defs>
</svg>
