<svg width="25" height="21" viewBox="0 0 25 21" fill="none" xmlns="http://www.w3.org/2000/svg">
<path d="M10.5293 7.05492H3.73622V17.9205H13.2466V9.77131H10.5293V7.05492ZM2.3776 6.37582C2.3776 6.18567 2.44327 6.02495 2.5746 5.89366C2.70593 5.76237 2.8667 5.69672 3.05691 5.69672H11.2087L14.6052 9.09221V18.5996C14.6052 18.7807 14.5395 18.9391 14.4082 19.0749C14.2769 19.2108 14.1161 19.2787 13.9259 19.2787H3.05691C2.8667 19.2787 2.70593 19.213 2.5746 19.0817C2.44327 18.9504 2.3776 18.7897 2.3776 18.5996V6.37582ZM9.17072 12.4877V15.2041H7.81209V12.4877H5.77416L8.49141 9.77131L11.2087 12.4877H9.17072Z" fill="white"/>
</svg>
