<svg width="23" height="20" viewBox="0 0 23 20" fill="none" xmlns="http://www.w3.org/2000/svg">
<path d="M7.28907 15.8335C6.49602 15.8335 5.73796 15.6818 5.01489 15.3785C4.32291 15.0829 3.70674 14.6649 3.16638 14.1243C2.62602 13.5838 2.20811 12.9674 1.91266 12.2752C1.60944 11.5518 1.45782 10.7935 1.45782 10.0002C1.45782 9.20683 1.60944 8.4485 1.91266 7.72516C2.20811 7.03294 2.62602 6.41655 3.16638 5.876C3.70674 5.33544 4.32291 4.91739 5.01489 4.62183C5.73796 4.3185 6.49602 4.16683 7.28907 4.16683C8.08212 4.16683 8.84019 4.3185 9.56326 4.62183C10.2552 4.91739 10.8714 5.33544 11.4118 5.876C11.9521 6.41655 12.37 7.03294 12.6655 7.72516C12.9687 8.4485 13.1203 9.20683 13.1203 10.0002C13.1203 10.7935 12.9687 11.5518 12.6655 12.2752C12.37 12.9674 11.9521 13.5838 11.4118 14.1243C10.8714 14.6649 10.2552 15.0829 9.56326 15.3785C8.84019 15.6818 8.08212 15.8335 7.28907 15.8335ZM7.28907 14.6668C8.13655 14.6668 8.92182 14.4529 9.6449 14.0252C10.3446 13.6129 10.9006 13.0568 11.3126 12.3568C11.7403 11.6335 11.9541 10.8479 11.9541 10.0002C11.9541 9.15238 11.7403 8.36683 11.3126 7.6435C10.9006 6.9435 10.3446 6.38739 9.6449 5.97516C8.92182 5.54739 8.13655 5.3335 7.28907 5.3335C6.4416 5.3335 5.65632 5.54739 4.93325 5.97516C4.2335 6.38739 3.67759 6.9435 3.26551 7.6435C2.83789 8.36683 2.62407 9.15238 2.62407 10.0002C2.62407 10.8479 2.83789 11.6335 3.26551 12.3568C3.67759 13.0568 4.2335 13.6129 4.93325 14.0252C5.65632 14.4529 6.4416 14.6668 7.28907 14.6668ZM6.70595 7.0835H7.8722V8.25016H6.70595V7.0835ZM6.70595 9.41683H7.8722V12.9168H6.70595V9.41683Z" fill="#9CA3AF"/>
</svg>
