<svg width="17" height="16" viewBox="0 0 17 16" fill="none" xmlns="http://www.w3.org/2000/svg">
<path d="M6.35156 10H4.35156V6H6.35156C6.71156 6 7.0449 6.09 7.35156 6.27C7.65823 6.45 7.90156 6.69333 8.08156 7C8.26156 7.30667 8.35156 7.64 8.35156 8C8.35156 8.36 8.26156 8.69333 8.08156 9C7.90156 9.30667 7.65823 9.55 7.35156 9.73C7.0449 9.91 6.71156 10 6.35156 10ZM5.35156 7V9H6.35156C6.53156 9 6.69823 8.955 6.85156 8.865C7.0049 8.775 7.12656 8.65333 7.21656 8.5C7.30656 8.34667 7.35156 8.18 7.35156 8C7.35156 7.82 7.30656 7.65333 7.21656 7.5C7.12656 7.34667 7.0049 7.225 6.85156 7.135C6.69823 7.045 6.53156 7 6.35156 7H5.35156ZM7.85156 4H2.85156V12H9.85156V6H7.85156V4ZM1.85156 3.5C1.85156 3.36 1.8999 3.24167 1.99656 3.145C2.09323 3.04833 2.21156 3 2.35156 3H8.35156L10.8516 5.5V12.5C10.8516 12.6333 10.8032 12.75 10.7066 12.85C10.6099 12.95 10.4916 13 10.3516 13H2.35156C2.21156 13 2.09323 12.9517 1.99656 12.855C1.8999 12.7583 1.85156 12.64 1.85156 12.5V3.5Z" fill="#9CA3AF"/>
</svg>
