<svg width="25" height="20" viewBox="0 0 25 20" fill="none" xmlns="http://www.w3.org/2000/svg">
<path d="M6.57537 11.12C6.88658 11.6711 7.2667 12.1711 7.71573 12.62C8.16476 13.0689 8.66491 13.4489 9.2162 13.76L9.80305 12.9333C9.90085 12.7911 10.032 12.7022 10.1965 12.6667C10.361 12.6311 10.5188 12.6533 10.67 12.7333C11.6214 13.2578 12.6395 13.56 13.7243 13.64C13.8932 13.6578 14.0377 13.7289 14.1577 13.8533C14.2778 13.9778 14.3378 14.1289 14.3378 14.3067V17.28C14.3378 17.4489 14.28 17.5978 14.1644 17.7267C14.0488 17.8556 13.9065 17.9289 13.7376 17.9467C13.3819 17.9822 13.0263 18 12.6706 18C11.2657 18 9.92308 17.7289 8.64268 17.1867C7.40674 16.6622 6.31307 15.9244 5.36166 14.9733C4.41025 14.0222 3.67224 12.9289 3.14763 11.6933C2.60524 10.4133 2.33405 9.07111 2.33405 7.66667C2.33405 7.31111 2.35183 6.95555 2.3874 6.6C2.40518 6.43111 2.47853 6.28889 2.60746 6.17333C2.73639 6.05778 2.88533 6 3.05427 6H6.02853C6.20637 6 6.35752 6.06 6.48201 6.18C6.60649 6.3 6.67762 6.44444 6.69541 6.61333C6.77543 7.69778 7.07775 8.71556 7.60236 9.66667C7.68238 9.81778 7.70461 9.97556 7.66904 10.14C7.63348 10.3044 7.54456 10.4356 7.4023 10.5333L6.57537 11.12ZM4.89485 10.68L6.16191 9.77333C5.80624 9 5.56172 8.18667 5.42835 7.33333H3.6678V7.66667C3.6678 8.88444 3.90342 10.0533 4.37468 11.1733C4.82816 12.2489 5.47058 13.2022 6.30195 14.0333C7.13332 14.8644 8.08695 15.5067 9.16285 15.96C10.2832 16.4311 11.4524 16.6667 12.6706 16.6667H13.004V14.9067C12.1504 14.7733 11.3369 14.5289 10.5633 14.1733L9.65633 15.44C9.29177 15.2978 8.93611 15.1289 8.58933 14.9333L8.54932 14.92C7.90023 14.5467 7.30893 14.0933 6.77543 13.56C6.24193 13.0267 5.78846 12.4356 5.41501 11.7867L5.40167 11.7467C5.20605 11.4 5.03711 11.0444 4.89485 10.68Z" fill="white"/>
</svg>
