<svg width="23" height="20" viewBox="0 0 23 20" fill="none" xmlns="http://www.w3.org/2000/svg">
<path d="M7.28907 15.8333C6.49602 15.8333 5.73796 15.6816 5.01489 15.3783C4.32291 15.0828 3.70674 14.6647 3.16638 14.1241C2.62602 13.5836 2.20811 12.9672 1.91266 12.275C1.60944 11.5516 1.45782 10.7933 1.45782 9.99998C1.45782 9.20665 1.60944 8.44831 1.91266 7.72498C2.20811 7.03276 2.62602 6.41637 3.16638 5.87581C3.70674 5.33526 4.32291 4.9172 5.01489 4.62165C5.73796 4.31831 6.49602 4.16665 7.28907 4.16665C8.08212 4.16665 8.84019 4.31831 9.56326 4.62165C10.2552 4.9172 10.8714 5.33526 11.4118 5.87581C11.9521 6.41637 12.37 7.03276 12.6655 7.72498C12.9687 8.44831 13.1203 9.20665 13.1203 9.99998C13.1203 10.7933 12.9687 11.5516 12.6655 12.275C12.37 12.9672 11.9521 13.5836 11.4118 14.1241C10.8714 14.6647 10.2552 15.0828 9.56326 15.3783C8.84019 15.6816 8.08212 15.8333 7.28907 15.8333ZM7.28907 14.6666C8.13655 14.6666 8.92182 14.4528 9.6449 14.025C10.3446 13.6128 10.9006 13.0566 11.3126 12.3566C11.7403 11.6333 11.9541 10.8478 11.9541 9.99998C11.9541 9.1522 11.7403 8.36665 11.3126 7.64331C10.9006 6.94331 10.3446 6.3872 9.6449 5.97498C8.92182 5.5472 8.13655 5.33331 7.28907 5.33331C6.4416 5.33331 5.65632 5.5472 4.93325 5.97498C4.2335 6.3872 3.67759 6.94331 3.26551 7.64331C2.83789 8.36665 2.62407 9.1522 2.62407 9.99998C2.62407 10.8478 2.83789 11.6333 3.26551 12.3566C3.67759 13.0566 4.2335 13.6128 4.93325 14.025C5.65632 14.4528 6.4416 14.6666 7.28907 14.6666ZM5.24814 11.1666H8.45532C8.53307 11.1666 8.60111 11.1375 8.65942 11.0791C8.71773 11.0208 8.74689 10.9528 8.74689 10.875C8.74689 10.7972 8.71773 10.7291 8.65942 10.6708C8.60111 10.6125 8.53307 10.5833 8.45532 10.5833H6.12282C5.85847 10.5833 5.61551 10.5172 5.39392 10.385C5.17233 10.2528 4.99545 10.0758 4.86327 9.85415C4.7311 9.63248 4.66501 9.38942 4.66501 9.12498C4.66501 8.86054 4.7311 8.61748 4.86327 8.39581C4.99545 8.17415 5.17233 7.9972 5.39392 7.86498C5.61551 7.73276 5.85847 7.66665 6.12282 7.66665H6.70595V6.49998H7.8722V7.66665H9.33001V8.83331H6.12282C6.04507 8.83331 5.97704 8.86248 5.91873 8.92081C5.86042 8.97915 5.83126 9.0472 5.83126 9.12498C5.83126 9.20276 5.86042 9.27081 5.91873 9.32915C5.97704 9.38748 6.04507 9.41665 6.12282 9.41665H8.45532C8.71967 9.41665 8.96264 9.48276 9.18423 9.61498C9.40582 9.7472 9.5827 9.92415 9.71487 10.1458C9.84705 10.3675 9.91314 10.6105 9.91314 10.875C9.91314 11.1394 9.84705 11.3825 9.71487 11.6041C9.5827 11.8258 9.40582 12.0028 9.18423 12.135C8.96264 12.2672 8.71967 12.3333 8.45532 12.3333H7.8722V13.5H6.70595V12.3333H5.24814V11.1666Z" fill="#C084FC"/>
</svg>
