<svg width="23" height="20" viewBox="0 0 23 20" fill="none" xmlns="http://www.w3.org/2000/svg">
<path d="M12.5372 7.66683V15.2502C12.5372 15.4135 12.4808 15.5516 12.3681 15.6643C12.2554 15.7771 12.1174 15.8335 11.9541 15.8335H2.62408C2.4608 15.8335 2.3228 15.7771 2.21006 15.6643C2.09732 15.5516 2.04095 15.4135 2.04095 15.2502V4.75016C2.04095 4.58683 2.09732 4.44877 2.21006 4.336C2.3228 4.22322 2.4608 4.16683 2.62408 4.16683H9.03845L12.5372 7.66683ZM11.371 8.25016H8.45533V5.3335H3.2072V14.6668H11.371V8.25016ZM4.95658 7.0835H6.70595V8.25016H4.95658V7.0835ZM4.95658 9.41683H9.62158V10.5835H4.95658V9.41683ZM4.95658 11.7502H9.62158V12.9168H4.95658V11.7502Z" fill="#9CA3AF"/>
</svg>
