<svg width="418" height="60" viewBox="0 0 418 60" fill="none" xmlns="http://www.w3.org/2000/svg">
<path d="M185 24C185 10.7452 195.745 0 209 0C222.255 0 233 10.7452 233 24C233 37.2548 222.255 48 209 48C195.745 48 185 37.2548 185 24Z" fill="#FEE2E2"/>
<path d="M209 27.3334H205.667V20.6667H209C209.6 20.6667 210.155 20.8167 210.666 21.1167C211.177 21.4167 211.583 21.8223 211.883 22.3334C212.182 22.8445 212.332 23.4 212.332 24C212.332 24.6 212.182 25.1556 211.883 25.6667C211.583 26.1778 211.177 26.5834 210.666 26.8834C210.155 27.1834 209.6 27.3334 209 27.3334ZM207.334 22.3334V25.6667H209C209.3 25.6667 209.578 25.5917 209.833 25.4417C210.089 25.2917 210.291 25.0889 210.441 24.8334C210.591 24.5778 210.666 24.3 210.666 24C210.666 23.7 210.591 23.4223 210.441 23.1667C210.291 22.9112 210.089 22.7084 209.833 22.5584C209.578 22.4084 209.3 22.3334 209 22.3334H207.334ZM211.499 17.3334H203.168V30.6667H214.832V20.6667H211.499V17.3334ZM201.502 16.5C201.502 16.2667 201.582 16.0695 201.743 15.9084C201.905 15.7473 202.102 15.6667 202.335 15.6667H212.332L216.498 19.8334V31.5C216.498 31.7223 216.418 31.9167 216.256 32.0834C216.095 32.25 215.898 32.3334 215.665 32.3334H202.335C202.102 32.3334 201.905 32.2528 201.743 32.0917C201.582 31.9306 201.502 31.7334 201.502 31.5V16.5Z" fill="#EF4444"/>
</svg>
