<svg width="25" height="20" viewBox="0 0 25 20" fill="none" xmlns="http://www.w3.org/2000/svg">
<path d="M8.33593 18.6666C7.42898 18.6666 6.56204 18.4933 5.73511 18.1466C4.94375 17.8088 4.23909 17.3311 3.62112 16.7133C3.00315 16.0955 2.52522 15.3911 2.18734 14.6C1.84056 13.7733 1.66718 12.9066 1.66718 12C1.66718 11.0933 1.84056 10.2266 2.18734 9.39996C2.52522 8.60885 3.00315 7.9044 3.62112 7.28663C4.23909 6.66885 4.94375 6.19107 5.73511 5.85329C6.56204 5.50663 7.42898 5.33329 8.33593 5.33329C9.24288 5.33329 10.1098 5.50663 10.9367 5.85329C11.7281 6.19107 12.4328 6.66885 13.0507 7.28663C13.6687 7.9044 14.1466 8.60885 14.4845 9.39996C14.8313 10.2266 15.0047 11.0933 15.0047 12C15.0047 12.9066 14.8313 13.7733 14.4845 14.6C14.1466 15.3911 13.6687 16.0955 13.0507 16.7133C12.4328 17.3311 11.7281 17.8088 10.9367 18.1466C10.1098 18.4933 9.24288 18.6666 8.33593 18.6666ZM8.33593 17.3333C9.30512 17.3333 10.2032 17.0888 11.0301 16.6C11.8303 16.1288 12.4661 15.4933 12.9374 14.6933C13.4264 13.8666 13.6709 12.9688 13.6709 12C13.6709 11.0311 13.4264 10.1333 12.9374 9.30663C12.4661 8.50663 11.8303 7.87107 11.0301 7.39996C10.2032 6.91107 9.30512 6.66663 8.33593 6.66663C7.36673 6.66663 6.46868 6.91107 5.64175 7.39996C4.8415 7.87107 4.20575 8.50663 3.73449 9.30663C3.24545 10.1333 3.00093 11.0311 3.00093 12C3.00093 12.9688 3.24545 13.8666 3.73449 14.6933C4.20575 15.4933 4.8415 16.1288 5.64175 16.6C6.46868 17.0888 7.36673 17.3333 8.33593 17.3333ZM7.41564 9.61329L10.67 11.7733C10.7322 11.8177 10.77 11.8755 10.7834 11.9466C10.7967 12.0177 10.7856 12.0844 10.75 12.1466C10.7233 12.1733 10.6967 12.2 10.67 12.2266L7.41564 14.3866C7.3534 14.4311 7.28671 14.4466 7.21558 14.4333C7.14444 14.42 7.08665 14.3822 7.04219 14.32C7.01551 14.2755 7.00217 14.2266 7.00217 14.1733V9.82663C7.00217 9.75552 7.02885 9.69329 7.0822 9.63996C7.13555 9.58663 7.19779 9.55996 7.26893 9.55996C7.32228 9.55996 7.37118 9.57774 7.41564 9.61329Z" fill="white"/>
</svg>
