<svg width="23" height="20" viewBox="0 0 23 20" fill="none" xmlns="http://www.w3.org/2000/svg">
<path d="M7.28906 15.8333C6.49601 15.8333 5.73795 15.6816 5.01487 15.3783C4.3229 15.0828 3.70673 14.6647 3.16637 14.1241C2.626 13.5836 2.2081 12.9672 1.91265 12.275C1.60942 11.5516 1.45781 10.7933 1.45781 9.99998C1.45781 9.20665 1.60942 8.44831 1.91265 7.72498C2.2081 7.03276 2.626 6.41637 3.16637 5.87581C3.70673 5.33526 4.3229 4.9172 5.01487 4.62165C5.73795 4.31831 6.49601 4.16665 7.28906 4.16665C8.08211 4.16665 8.84017 4.31831 9.56325 4.62165C10.2552 4.9172 10.8714 5.33526 11.4118 5.87581C11.9521 6.41637 12.37 7.03276 12.6655 7.72498C12.9687 8.44831 13.1203 9.20665 13.1203 9.99998C13.1203 10.7933 12.9687 11.5516 12.6655 12.275C12.37 12.9672 11.9521 13.5836 11.4118 14.1241C10.8714 14.6647 10.2552 15.0828 9.56325 15.3783C8.84017 15.6816 8.08211 15.8333 7.28906 15.8333ZM7.28906 14.6666C8.13653 14.6666 8.92181 14.4528 9.64488 14.025C10.3446 13.6128 10.9005 13.0566 11.3126 12.3566C11.7402 11.6333 11.9541 10.8478 11.9541 9.99998C11.9541 9.1522 11.7402 8.36665 11.3126 7.64331C10.9005 6.94331 10.3446 6.3872 9.64488 5.97498C8.92181 5.5472 8.13653 5.33331 7.28906 5.33331C6.44158 5.33331 5.65631 5.5472 4.93323 5.97498C4.23348 6.3872 3.67757 6.94331 3.2655 7.64331C2.83787 8.36665 2.62406 9.1522 2.62406 9.99998C2.62406 10.8478 2.83787 11.6333 3.2655 12.3566C3.67757 13.0566 4.23348 13.6128 4.93323 14.025C5.65631 14.4528 6.44158 14.6666 7.28906 14.6666ZM7.87218 9.99998H10.2047V11.1666H6.70593V7.08331H7.87218V9.99998Z" fill="#60A5FA"/>
</svg>
