<svg width="32" height="36" viewBox="0 0 32 36" fill="none" xmlns="http://www.w3.org/2000/svg">
<path d="M0 20C0 11.1634 7.16344 4 16 4C24.8366 4 32 11.1634 32 20C32 28.8366 24.8366 36 16 36C7.16344 36 0 28.8366 0 20Z" fill="#EF4444" fill-opacity="0.2"/>
<path d="M16 4.5C24.5604 4.5 31.5 11.4396 31.5 20C31.5 28.5604 24.5604 35.5 16 35.5C7.43959 35.5 0.5 28.5604 0.5 20C0.5 11.4396 7.43959 4.5 16 4.5Z" stroke="#F87171" stroke-opacity="0.3"/>
<path d="M14.756 21.8551L20.1207 16.4884L20.9371 17.3167L14.756 23.5117L11.0473 19.7901L11.8637 18.9734L14.756 21.8551Z" fill="#F87171"/>
</svg>
