<svg width="64" height="88" viewBox="0 0 64 88" fill="none" xmlns="http://www.w3.org/2000/svg">
<path d="M0 32C0 14.3269 14.3269 0 32 0C49.6731 0 64 14.3269 64 32C64 49.6731 49.6731 64 32 64C14.3269 64 0 49.6731 0 32Z" fill="#3B82F6" fill-opacity="0.2"/>
<path d="M32 0.5C49.397 0.5 63.5 14.603 63.5 32C63.5 49.397 49.397 63.5 32 63.5C14.603 63.5 0.5 49.397 0.5 32C0.5 14.603 14.603 0.5 32 0.5Z" stroke="#60A5FA" stroke-opacity="0.3"/>
<path d="M29.66 28.04L32.22 30.58L38.94 23.86C39.2066 23.6067 39.51 23.4333 39.85 23.34C40.19 23.2467 40.5333 23.2467 40.88 23.34C41.2266 23.4333 41.5266 23.6067 41.78 23.86L29.66 35.96C30.0333 36.5867 30.22 37.2633 30.22 37.99C30.22 38.7167 30.04 39.3867 29.68 40C29.32 40.6133 28.8333 41.1 28.22 41.46C27.6066 41.82 26.94 42 26.22 42C25.5 42 24.8333 41.82 24.22 41.46C23.6066 41.1 23.12 40.6133 22.76 40C22.4 39.3867 22.22 38.72 22.22 38C22.22 37.28 22.4 36.6133 22.76 36C23.12 35.3867 23.6066 34.9 24.22 34.54C24.8333 34.18 25.5033 34 26.23 34C26.9566 34 27.6333 34.1867 28.26 34.56L30.8 32L28.26 29.44C27.6333 29.8133 26.9566 30 26.23 30C25.5033 30 24.8333 29.82 24.22 29.46C23.6066 29.1 23.12 28.6133 22.76 28C22.4 27.3867 22.22 26.72 22.22 26C22.22 25.28 22.4 24.6133 22.76 24C23.12 23.3867 23.6066 22.9 24.22 22.54C24.8333 22.18 25.5 22 26.22 22C26.94 22 27.6066 22.18 28.22 22.54C28.8333 22.9 29.32 23.3867 29.68 24C30.04 24.6133 30.22 25.2833 30.22 26.01C30.22 26.7367 30.0333 27.4133 29.66 28.04ZM35.04 33.42L41.78 40.14C41.5266 40.3933 41.2266 40.5667 40.88 40.66C40.5333 40.7533 40.19 40.7533 39.85 40.66C39.51 40.5667 39.2066 40.3933 38.94 40.14L33.64 34.82L35.04 33.42ZM27.64 36.58C27.4533 36.3933 27.2366 36.25 26.99 36.15C26.7433 36.05 26.4866 36 26.22 36C25.86 36 25.5266 36.09 25.22 36.27C24.9133 36.45 24.67 36.6933 24.49 37C24.31 37.3067 24.22 37.64 24.22 38C24.22 38.36 24.31 38.6933 24.49 39C24.67 39.3067 24.9133 39.55 25.22 39.73C25.5266 39.91 25.86 40 26.22 40C26.58 40 26.9133 39.91 27.22 39.73C27.5266 39.55 27.77 39.3067 27.95 39C28.13 38.6933 28.22 38.36 28.22 38C28.22 37.7333 28.17 37.4767 28.07 37.23C27.97 36.9833 27.8266 36.7667 27.64 36.58ZM27.64 27.42C27.8266 27.2333 27.97 27.0167 28.07 26.77C28.17 26.5233 28.22 26.2667 28.22 26C28.22 25.64 28.13 25.3067 27.95 25C27.77 24.6933 27.5266 24.45 27.22 24.27C26.9133 24.09 26.58 24 26.22 24C25.86 24 25.5266 24.09 25.22 24.27C24.9133 24.45 24.67 24.6933 24.49 25C24.31 25.3067 24.22 25.64 24.22 26C24.22 26.36 24.31 26.6933 24.49 27C24.67 27.3067 24.9133 27.55 25.22 27.73C25.5266 27.91 25.86 28 26.22 28C26.4866 28 26.7433 27.95 26.99 27.85C27.2366 27.75 27.4533 27.6067 27.64 27.42Z" fill="#60A5FA"/>
</svg>
