<svg width="23" height="20" viewBox="0 0 23 20" fill="none" xmlns="http://www.w3.org/2000/svg">
<path d="M7.8722 14.6085C8.31537 14.5229 8.71384 14.3421 9.06761 14.066C9.42137 13.7899 9.69932 13.4496 9.90147 13.0452C10.1036 12.6407 10.2047 12.2091 10.2047 11.7502V10.0002C10.2047 9.59572 10.1231 9.20683 9.95979 8.8335H4.61836C4.45509 9.20683 4.37345 9.59572 4.37345 10.0002V11.7502C4.37345 12.2091 4.47452 12.6407 4.67667 13.0452C4.87882 13.4496 5.15678 13.7899 5.51054 14.066C5.86431 14.3421 6.26277 14.5229 6.70595 14.6085V11.1668H7.8722V14.6085ZM3.52209 13.3252C3.31216 12.8196 3.2072 12.2946 3.2072 11.7502H1.45782V10.5835H3.2072V10.0002C3.2072 9.63461 3.25385 9.27294 3.34715 8.91516L2.06427 8.1685L2.6474 7.16516L3.82531 7.84183L3.94194 7.66683H10.6362L10.7528 7.84183L11.9307 7.16516L12.5139 8.1685L11.231 8.91516C11.3243 9.27294 11.3709 9.63461 11.3709 10.0002V10.5835H13.1203V11.7502H11.3709C11.3709 12.2946 11.266 12.8196 11.0561 13.3252L12.5139 14.1652L11.9307 15.1685L10.4613 14.3168C10.0803 14.7913 9.61769 15.1607 9.07344 15.4252C8.51364 15.6974 7.91885 15.8335 7.28907 15.8335C6.6593 15.8335 6.06451 15.6974 5.50471 15.4252C4.96046 15.1607 4.49785 14.7913 4.11687 14.3168L2.6474 15.1685L2.06427 14.1652L3.52209 13.3252ZM4.95657 6.50016C4.95657 6.08016 5.06154 5.69127 5.27146 5.3335C5.48139 4.97572 5.76517 4.69183 6.12282 4.48183C6.48047 4.27183 6.86922 4.16683 7.28907 4.16683C7.70892 4.16683 8.09767 4.27183 8.45532 4.48183C8.81297 4.69183 9.09676 4.97572 9.30669 5.3335C9.51661 5.69127 9.62157 6.08016 9.62157 6.50016H4.95657Z" fill="#9CA3AF"/>
</svg>
